<?xml version="1.0" encoding="UTF-8"?>
<svg xmlns="http://www.w3.org/2000/svg" xmlns:xlink="http://www.w3.org/1999/xlink" width="99px" height="22px" viewBox="0 0 99 22" version="1.1">
<g id="surface1">
<path style=" stroke:none;fill-rule:nonzero;fill:rgb(9.411765%,46.666667%,94.901961%);fill-opacity:1;" d="M 0 0 L 2.359375 2.199219 C 4.714844 4.398438 9.417969 8.800781 14.164062 10.265625 C 18.859375 11.757812 23.582031 10.242188 28.257812 9.535156 C 33 8.800781 37.742188 8.800781 42.417969 8.0625 C 47.140625 7.355469 51.835938 5.84375 56.582031 5.5 C 61.285156 5.15625 66 5.84375 70.742188 6.964844 C 75.425781 8.042969 80.164062 9.554688 84.835938 11.734375 C 89.574219 13.957031 94.257812 16.84375 96.664062 18.335938 L 99 19.800781 L 99 22 L 96.640625 22 C 94.285156 22 89.582031 22 84.835938 22 C 80.140625 22 75.417969 22 70.742188 22 C 66 22 61.257812 22 56.582031 22 C 51.859375 22 47.164062 22 42.417969 22 C 37.714844 22 33 22 28.257812 22 C 23.574219 22 18.835938 22 14.164062 22 C 9.425781 22 4.742188 22 2.335938 22 L 0 22 Z M 0 0 "/>
</g>
</svg>
